<svg width="204" height="47" fill="none" xmlns="http://www.w3.org/2000/svg"><path d="M147.4 13.52a8.308 8.308 0 0 0-6.242-2.649 8.304 8.304 0 0 0-6.24 2.648 8.841 8.841 0 0 0-2.544 6.378 8.835 8.835 0 0 0 2.544 6.378 8.306 8.306 0 0 0 6.244 2.646 8.308 8.308 0 0 0 6.238-2.646 8.826 8.826 0 0 0 2.545-6.378 8.836 8.836 0 0 0-2.545-6.378zm-5.7 19.2l-.543.033a12.77 12.77 0 0 1-9.332-3.7 12.329 12.329 0 0 1-3.764-9.194 12.262 12.262 0 0 1 3.764-9.159 12.912 12.912 0 0 1 9.332-3.7 12.757 12.757 0 0 1 9.328 3.7 12.26 12.26 0 0 1 3.768 9.162 12.7 12.7 0 0 1-2.238 7.4 12.676 12.676 0 0 1-5.973 4.648 3.738 3.738 0 0 0 3.054 1.594 5.356 5.356 0 0 0 2.647-.712 4.988 4.988 0 0 0 1.968-1.867l2.374 3.32a9.515 9.515 0 0 1-7.092 3.257 8.292 8.292 0 0 1-4.375-1.287 6.877 6.877 0 0 1-2.918-3.494m29.515-8.889V13.587h3.969v18.93h-3.969v-3.463a7.344 7.344 0 0 1-2.645 2.751 6.889 6.889 0 0 1-3.631.984 7.01 7.01 0 0 1-5.192-1.969 7.577 7.577 0 0 1-1.967-5.666V13.587h3.97v10.38c0 3.5 1.459 5.225 4.342 5.225a5.165 5.165 0 0 0 3.6-1.357 5.092 5.092 0 0 0 1.527-4m8.614-14.014a2.381 2.381 0 0 1-.747-1.764 2.334 2.334 0 0 1 .747-1.763 2.381 2.381 0 0 1 1.764-.743 2.331 2.331 0 0 1 1.764.747 2.4 2.4 0 0 1 .747 1.763 2.326 2.326 0 0 1-.747 1.76 2.377 2.377 0 0 1-1.764.747 2.329 2.329 0 0 1-1.764-.747m-.272 3.766h3.968v18.931h-3.968v-18.93zm8.344 3.494v-3.426h14.826v3.6l-10.655 11.802h11.2v3.461h-16.081v-3.9l10.347-11.537h-9.637zM49.419 32.52h-4.207V7.65h6.548l7.5 15.606 7.5-15.606h6.513v24.87h-4.211V13.074l-8.651 17.272h-2.375l-8.617-17.272V32.52zm40.44-7.058v-1.6H85.38c-2.883 0-4.309.917-4.309 2.716a2.366 2.366 0 0 0 1.052 2.1c.9.538 1.939.797 2.986.745a5.4 5.4 0 0 0 3.325-1.05 3.509 3.509 0 0 0 1.425-2.918v.007zm4 7.05h-3.63v-2.505a7.812 7.812 0 0 1-6.311 2.816 7.171 7.171 0 0 1-4.885-1.662 5.636 5.636 0 0 1-1.933-4.479 4.642 4.642 0 0 1 2.069-4.173 9.969 9.969 0 0 1 5.6-1.39h5.157v-.713c0-2.51-1.391-3.767-4.206-3.767a9.655 9.655 0 0 0-5.463 1.934l-1.8-2.545a12.269 12.269 0 0 1 7.838-2.746 8.536 8.536 0 0 1 5.462 1.7c1.425 1.12 2.1 2.884 2.1 5.326V32.52l.002-.007zm7.094-10.207a5.972 5.972 0 0 0 1.425 4 4.82 4.82 0 0 0 3.868 1.7 5.07 5.07 0 0 0 3.937-1.628 5.725 5.725 0 0 0 1.525-4.072 6.003 6.003 0 0 0-1.525-4.138 5.103 5.103 0 0 0-3.935-1.7 4.794 4.794 0 0 0-3.868 1.73 6.498 6.498 0 0 0-1.425 4.1l-.002.008zm14.758-8.718v16.488c0 3.36-.917 5.835-2.716 7.532a9.915 9.915 0 0 1-6.988 2.51 12.25 12.25 0 0 1-7.735-2.68l1.9-3.019a9.362 9.362 0 0 0 5.6 2.1 6.418 6.418 0 0 0 4.477-1.456c1.118-.983 1.662-2.515 1.662-4.648v-2.408a6.884 6.884 0 0 1-2.545 2.68 6.98 6.98 0 0 1-3.733.983 7.96 7.96 0 0 1-6.174-2.645 9.244 9.244 0 0 1-2.407-6.549 9.4 9.4 0 0 1 2.408-6.547 8.007 8.007 0 0 1 6.175-2.647 7.284 7.284 0 0 1 6.107 3.088v-2.816h3.97v.034h-.001zm4.547 0h3.969v18.931h-3.969v-18.93zm2.001-11.637l1.05 3.462a.725.725 0 0 0 .441.44l3.461 1.051-3.46 1.052a.712.712 0 0 0-.441.441l-1.05 3.427-1.053-3.427a.713.713 0 0 0-.441-.44l-3.46-1.053 3.46-1.053a.705.705 0 0 0 .441-.44l1.052-3.46zM17.223 6.678A17.243 17.243 0 0 0 0 23.901a17.242 17.242 0 0 0 17.223 17.222 17.242 17.242 0 0 0 17.221-17.222A17.243 17.243 0 0 0 17.223 6.678zm0 1.956a15.267 15.267 0 1 1-.002 30.534 15.267 15.267 0 0 1 .002-30.534" fill="#fff"/><path d="M17.445 45.594c-.012-.113-.022-.225-.037-.338.14-.215.345-.38.586-.469.019.133.037.265.054.4-.165.182-.37.323-.6.411" fill="#9F7333"/><path d="M18.02 44.981a6.402 6.402 0 0 1-.05-.189c.111-.236.288-.435.51-.573.042.144.082.291.12.433a2.77 2.77 0 0 1-.58.329" fill="#9F7333"/><path fill-rule="evenodd" clip-rule="evenodd" d="M11.303 25.738a11.365 11.365 0 0 0-5.459 3.908c-.487.731-.648 1.68.155 1.45a8.842 8.842 0 0 0-.136 7.163c.314.72.8 1.09 1.166.4.817 1.683 1.4 3.486.233 4.492-1.2 1.031-1.759 1.236-.8 1.922a11.144 11.144 0 0 0 7.997 1.596 13.229 13.229 0 0 0 6.939-2.8c-.113 1.148.639.691 1.569-.22a9.084 9.084 0 0 0 3.116-5.033c.128 1.093.686.724.976.068 2-4.523-2.013-10.72-4.53-14.23-1.06 3.822-9.403 4.442-11.226 1.284z" fill="#fff"/><path fill-rule="evenodd" clip-rule="evenodd" d="M6.059 44.236c-.178.27-.082.493.407.841a11.143 11.143 0 0 0 7.993 1.59 13.234 13.234 0 0 0 6.94-2.8c-.114 1.148.638.691 1.569-.221a9.094 9.094 0 0 0 3.116-5.033c.127 1.094.687.725.976.069 1.349-3.054-.039-6.866-1.857-10.1a40.48 40.48 0 0 1 1.1 5.69c.1.887.08 3.624-.891 1.409a13.855 13.855 0 0 1-3.354 6.031c-.5.522-1.3.556-1.228-.572-3.936 4.889-9.625 5.422-14.771 3.1m5.997-5.655c-.265-4.031.155-4.642 1.971-7.283-2.9 2.5-2.608 4.369-1.971 7.283" fill="#CFCFCE"/><path fill-rule="evenodd" clip-rule="evenodd" d="M11.498 42.035c3.115-2.112 1.373-6.766 3.437-9.722-2.737 3.022-.85 6.767-3.437 9.722zM18.5 31.44c.786 2.114.856 4.428.2 6.586a5.934 5.934 0 0 0-.2-6.587m-9.589 3.762c.154-1.75 1.538-3.294 2.819-4.33-2.528 1.106-3.07 3.021-2.819 4.33z" fill="#CFCFCE"/><path fill-rule="evenodd" clip-rule="evenodd" d="M22.814 17.574l.92.55c.084 1.3-.116 3.524.853 4.2.5.345.993 0 1.478.232 1.06.5-.3 2.1-1.088 2.1-.18 1.543-2.43 1.094-2.614.6l-10.352-.51c-1.023.317-2.066.437-2.475-.512a.81.81 0 0 1 .294-1.073c1.1-.721 1.068-5.033 1.17-6.357l11.814.77z" fill="#fff"/><path fill-rule="evenodd" clip-rule="evenodd" d="M22.809 17.396l.918.445c.018.208.022.45.025.7a91.255 91.255 0 0 1-12.807-.538c.032-.514.05-.958.076-1.237l11.788.63z" fill="#AFAFAD"/><path fill-rule="evenodd" clip-rule="evenodd" d="M12.347 24.76l-.336-.015c-.976.3-1.97.427-2.414-.389 1.07-.25 1.19-.576 1.857-2.394l.893 2.798zm13.861-.954a1.828 1.828 0 0 1-1.233.853c-.177 1.543-2.429 1.094-2.614.601l-.128-.009.023-2.923.907-1.407c.6 2.091 1.665 2.874 3.045 2.885" fill="#CFCFCE"/><path fill-rule="evenodd" clip-rule="evenodd" d="M22.427 25.532l-2.106 2.313-4.081 1.2-4.884-.37c-.21-3.519-.312-6.855-.208-10.318.085-2.743 1.732-3.681 3.81-3.874 4.4-.415 7.7.649 7.928 2.964a38.242 38.242 0 0 1-.46 8.085" fill="#FFC88A"/><path fill-rule="evenodd" clip-rule="evenodd" d="M20.717 26.224c-1.031-1.04.088-4.129 1.765-3.123-1.498-.132-2.29 1.429-1.765 3.123zm-8.229-.353c.76-.763-.065-3.04-1.3-2.3 1.106-.1 1.69 1.052 1.3 2.3z" fill="#FFA05D"/><path fill-rule="evenodd" clip-rule="evenodd" d="M11.166 18.036c.2-2.498 1.8-3.375 3.791-3.556 4.4-.415 7.7.65 7.929 2.964.037.365.061.731.07 1.11a89.857 89.857 0 0 1-11.79-.518" fill="#F19764"/><path fill-rule="evenodd" clip-rule="evenodd" d="M9.302 26.412c1.027 2.1 4.059 4.105 6.482 3.214 2.531.753 6.556-1.077 7.368-3.78-5.371 2.837-12.35 1.974-13.85.566z" fill="#21292B"/><path fill-rule="evenodd" clip-rule="evenodd" d="M23.108 24.276a1.725 1.725 0 0 0-.92.224c-.415.24-.905.313-1.372.204-2.176-.292-3.074.156-5.256 1.329-.729-1.199-3.192-1.595-4.631-1.529-.155 0-.3.018-.432.031a1.272 1.272 0 0 1-1.029-.251c-.372-.263-.825-.268-.873.444-.2 2.756 4.25 5.211 7.189 4.132 2.69.8 6.529-1.02 7.675-3.326.366-.738.161-1.2-.35-1.254" fill="#fff"/><path fill-rule="evenodd" clip-rule="evenodd" d="M15.73 15.955a33.115 33.115 0 0 0-.615 11.276l2.369-2.576-1.958 1.132a83.01 83.01 0 0 1 .204-9.832" fill="#FFA05D"/><path fill-rule="evenodd" clip-rule="evenodd" d="M5.433 16.47c8.172 2.175 18.275 1.515 23.843 1.49l-6.078-1.644c-.743-4.73-1.861-8.771-.54-13.24a1.932 1.932 0 0 1 .768-1.288c.523-.39.257-.84-.368-.782a8.574 8.574 0 0 0-3.507 1.09c-5.324 2.789-7.19 7.234-8.195 13.65l-5.923.725z" fill="#3D4347"/><path fill-rule="evenodd" clip-rule="evenodd" d="M23.224 18.062c2.311-.026 4.383-.091 6.051-.1l-6.077-1.644c-.744-4.729-1.861-8.771-.541-13.24a1.936 1.936 0 0 1 .769-1.288.833.833 0 0 0 .176-.167c-2.749.281-3.012 5.872-2.694 9.34.156 1.7.9 3.926.057 5.525 1.472.432 1.892.484 2.259 1.575" fill="#21292B"/><path fill-rule="evenodd" clip-rule="evenodd" d="M10.229 15.887l-3.724.453a35.204 35.204 0 0 0 8.824 1.273c1.4-.018 1.073-.647.017-.691a19.683 19.683 0 0 1-5.117-1.035M23.622 1.16a.67.67 0 0 0-.564-.155 8.6 8.6 0 0 0-3.508 1.092c-4.827 2.53-6.81 6.418-7.891 11.9 1.262 1 2.293.393 2.739-1.2.813-2.915 1.472-5.457 3.714-8.12a9.283 9.283 0 0 1 5.51-3.517" fill="#57676F"/><path fill-rule="evenodd" clip-rule="evenodd" d="M20.302 18.76a2.159 2.159 0 0 0-1.568.116c-.635.224-.95.191-1.093-.142a.78.78 0 0 1 .541-1.134 3.18 3.18 0 0 1 2.656.034c.516.34.548.74.43.97-.149.288-.355.376-.966.155" fill="#fff"/><path fill-rule="evenodd" clip-rule="evenodd" d="M18.247 20.577c-.34 1.425 1.548 2.9 2.454 1.172-1.207.893-2.285-.424-2.454-1.172zm-4.718 0c.187.8-.867 1.622-1.375.656.675.497 1.275-.238 1.375-.656z" fill="#FFA05D"/><path fill-rule="evenodd" clip-rule="evenodd" d="M13.717 18.497a1.47 1.47 0 0 0-1.07.084c-.432.154-.648.13-.747-.1a.533.533 0 0 1 .371-.775 2.162 2.162 0 0 1 1.815.022c.353.232.374.508.294.665-.1.194-.243.254-.663.1" fill="#fff"/><path fill-rule="evenodd" clip-rule="evenodd" d="M22.402 19.895c1.582-.45 2.484-.536 2.582.593.155 1.788-1.576 1.035-2.661.771l.079-1.364zm-10.895-.045c-1.223-.351-1.926-.417-2 .465-.119 1.381 1.223.8 2.061.593l-.061-1.058z" fill="#FFC88A"/><path fill-rule="evenodd" clip-rule="evenodd" d="M22.863 20.795c.435-.494 1.27-1.086 1.8-.13a2.153 2.153 0 0 0-1.8.13m-12.05-.205c-.265-.494-.778-1.085-1.112-.131.47-.243.642-.162 1.107.131" fill="#FFA05D"/><path fill-rule="evenodd" clip-rule="evenodd" d="M23.195 19.426l-.207-.826a4.547 4.547 0 0 0-.841 1.182c-.228.451-.31.807-.042.984.924.611.928-.873 1.092-1.34m-12.323-.003l.165-.86c.162.315.296.643.4.982.09.315.12.559.015.685-.356.424-.515-.486-.58-.807z" fill="#fff"/><path d="M11.111 15.81a.32.32 0 1 1 .14-.626 34.81 34.81 0 0 0 6 .882c2.025.109 4.056.044 6.07-.194a.323.323 0 0 1 .069.642 36.605 36.605 0 0 1-6.174.191c-2.057-.12-4.1-.42-6.105-.895" fill="#CDA35A"/><path d="M11.68 15.282l.4.082c.205.197.34.456.384.737l-.378-.076a1.521 1.521 0 0 1-.406-.743m1.873.365c.133.022.267.044.4.064a1.3 1.3 0 0 1 .369.7 5.924 5.924 0 0 1-.369-.049 1.445 1.445 0 0 1-.4-.715m1.741.248c.14.018.279.029.418.045a1.3 1.3 0 0 1 .334.678c-.111-.009-.22-.023-.331-.031a1.3 1.3 0 0 1-.421-.692m1.83.16l.126.01c.089.005.18.008.274.012.176.182.294.412.341.661-.119-.008-.235-.012-.35-.016a1.337 1.337 0 0 1-.391-.667m1.751.061h.368c.185.17.313.393.365.638-.125.004-.245.005-.371.006a1.4 1.4 0 0 1-.362-.644m1.832-.035c.12 0 .243-.01.362-.017.18.165.305.382.358.621-.12.009-.244.016-.363.021a1.34 1.34 0 0 1-.357-.625m1.742-.119c.1-.008.206-.02.31-.028.194.153.334.363.4.6-.131.017-.262.032-.395.045-.15-.18-.258-.39-.315-.617" fill="#9F7333"/><path fill-rule="evenodd" clip-rule="evenodd" d="M18.438 25.62a3.244 3.244 0 0 1 .377 2.912 1.838 1.838 0 0 0-.377-2.913m.884-.086a2.24 2.24 0 0 1 .938 1.782 1.263 1.263 0 0 0-.938-1.782m-6.914-.313a2.212 2.212 0 0 0-.935 1.781 1.262 1.262 0 0 1 .935-1.781" fill="#CFCFCE"/><path fill-rule="evenodd" clip-rule="evenodd" d="M19.458 19.541a.9.9 0 0 1 .835 1.235.901.901 0 0 0-1.636.076.9.9 0 0 1 .801-1.311m-6.431-.026a.567.567 0 0 1 .519.793.567.567 0 0 0-1.039 0 .567.567 0 0 1 .52-.793" fill="#21292B"/></svg>